<?xml version="1.0" encoding="UTF-8"?>
<svg id="Réteg_1" xmlns="http://www.w3.org/2000/svg" version="1.1" viewBox="0 0 200 200">
  <style>
    path {
      fill: currentColor;
    }
  </style>
  <!-- Generator: Adobe Illustrator 30.4.0, SVG Export Plug-In . SVG Version: 2.1.4 Build 226)  -->
  <path d="M145.8,11.08l-22.24,38.7h10.49c11.97,0,21.7,9.74,21.7,21.7,0,4.31-1.27,8.33-3.44,11.71,10.55,6.26,17.64,17.76,17.64,30.9,0,19.8-16.11,35.9-35.9,35.9H48.68l48.96-85.21h-14.97l-58.01,100.96c18.33,20.99,45.29,34.25,75.34,34.25,55.23,0,100-44.77,100-100,0-38.72-22.01-72.3-54.2-88.92h0Z"/>
  <path d="M134.04,64.79h-19.11l-7.7,13.4h26.81c3.7,0,6.7-3.01,6.7-6.7s-3.01-6.7-6.7-6.7Z"/>
  <path d="M118.87,1.79l-27.58,48h14.97l25.62-44.6c-4.22-1.42-8.56-2.56-13.01-3.41h0Z"/>
  <path d="M98.62,93.19l-24.02,41.81h59.45c11.53,0,20.9-9.38,20.9-20.9s-9.38-20.9-20.9-20.9h-35.43Z"/>
  <path d="M73.99,49.79L102.58.03c-.86-.02-1.72-.03-2.58-.03C63.07,0,30.83,20.02,13.51,49.79h60.48Z"/>
  <path d="M65.37,64.79H6.38C2.26,75.74,0,87.61,0,100c0,19.29,5.47,37.3,14.93,52.58,0,0,50.44-87.79,50.44-87.79Z"/>
</svg>