<?xml version="1.0" encoding="UTF-8"?>
<svg id="Réteg_1" xmlns="http://www.w3.org/2000/svg" version="1.1" viewBox="0 0 200 200">
  <style>
    path {
      fill: currentColor;
    }
  </style>
  <path d="M58.11,84.53c-15.93,12.65-33.45,29.25-51.81,50.45,10.92,29.23,35.12,51.98,65.26,60.9-2.97-28.86-7.28-66.21-13.45-111.36Z"/>
  <path d="M55.76,67.64c-2.36-16.71-4.96-34.4-7.83-53.03C19.19,32.17,0,63.85,0,100c0,6.13.55,12.12,1.61,17.95,18.87-20.94,37.2-37.6,54.15-50.31Z"/>
  <path d="M69.35,58.09c5.33-3.49,10.49-6.56,15.44-9.23l-6.35-46.52c-5.74,1.26-11.29,3.02-16.62,5.22,2.74,17.68,5.25,34.53,7.53,50.53Z"/>
  <path d="M100,0c-2.33,0-4.64.09-6.92.24l5.72,41.92c13.37-5.53,24.68-7.59,33.14-6.48,9.76,1.28,13.58,6.6,14.99,9.66,3.67,7.97.6,18-9.66,31.1,10.8-3.24,20.19-3.99,27.31-1.96,6.86,1.95,9.97,5.99,11.38,9.04,3.33,7.22,2.47,19.16-29.12,53.07-16.27,17.47-33.16,32.66-33.87,33.29l-4.01,3.6c-2.71,2.43-7.04.84-7.53-2.77l-14.48-106.06c-4.84,2.8-9.95,6.05-15.29,9.78,7.15,51.51,11.95,93.41,15.11,124.7,4.33.57,8.75.87,13.24.87,55.23,0,100-44.77,100-100S155.23,0,100,0Z"/>
  <path d="M128.68,50.22c-6.39-.36-15.91,1.81-27.79,7.2l4.27,31.29c3.75-3.42,8.11-7.57,12.3-12,18.08-19.12,16.07-25.12,16.04-25.18-.14-.21-1.43-1.12-4.82-1.31Z"/>
  <path d="M113.42,149.23c5.85-5.58,13.48-13.06,20.98-21.03,26.38-27.99,27.95-37.11,28-38.64-.22-.2-.77-.56-1.87-.87-.06-.02-.12-.03-.17-.05-6.5-1.72-24.51.38-52.72,18.24l5.78,42.34Z"/>
</svg>